<?xml version="1.0" encoding="UTF-8" standalone="no"?>
<!DOCTYPE svg PUBLIC "-//W3C//DTD SVG 1.1//EN"
 "http://www.w3.org/Graphics/SVG/1.1/DTD/svg11.dtd">
<!-- Generated by graphviz version 2.38.0 (20140413.2041)
 -->
<!-- Title: G Pages: 1 -->
<svg width="1391pt" height="1654pt"
 viewBox="0.00 0.00 1390.87 1654.00" xmlns="http://www.w3.org/2000/svg" xmlns:xlink="http://www.w3.org/1999/xlink">
<g id="graph0" class="graph" transform="scale(1 1) rotate(0) translate(4 1650)">
<title>G</title>
<polygon fill="white" stroke="none" points="-4,4 -4,-1650 1386.87,-1650 1386.87,4 -4,4"/>
<g id="clust1" class="cluster"><title>cluster_Global</title>
<path fill="none" stroke="gray" d="M20,-44C20,-44 1362.87,-44 1362.87,-44 1368.87,-44 1374.87,-50 1374.87,-56 1374.87,-56 1374.87,-1626 1374.87,-1626 1374.87,-1632 1368.87,-1638 1362.87,-1638 1362.87,-1638 20,-1638 20,-1638 14,-1638 8,-1632 8,-1626 8,-1626 8,-56 8,-56 8,-50 14,-44 20,-44"/>
<text text-anchor="middle" x="691.433" y="-1625.2" font-family="Times New Roman,serif" font-size="11.00" fill="gray">Global</text>
</g>
<g id="clust2" class="cluster"><title>cluster_\Slothsoft</title>
<path fill="none" stroke="gray" d="M28,-52C28,-52 1354.87,-52 1354.87,-52 1360.87,-52 1366.87,-58 1366.87,-64 1366.87,-64 1366.87,-1598 1366.87,-1598 1366.87,-1604 1360.87,-1610 1354.87,-1610 1354.87,-1610 28,-1610 28,-1610 22,-1610 16,-1604 16,-1598 16,-1598 16,-64 16,-64 16,-58 22,-52 28,-52"/>
<text text-anchor="middle" x="691.433" y="-1597.2" font-family="Times New Roman,serif" font-size="11.00" fill="gray">Slothsoft</text>
</g>
<g id="clust3" class="cluster"><title>cluster_\Slothsoft\Savegame</title>
<path fill="none" stroke="gray" d="M36,-60C36,-60 1346.87,-60 1346.87,-60 1352.87,-60 1358.87,-66 1358.87,-72 1358.87,-72 1358.87,-1570 1358.87,-1570 1358.87,-1576 1352.87,-1582 1346.87,-1582 1346.87,-1582 36,-1582 36,-1582 30,-1582 24,-1576 24,-1570 24,-1570 24,-72 24,-72 24,-66 30,-60 36,-60"/>
<text text-anchor="middle" x="691.433" y="-1569.2" font-family="Times New Roman,serif" font-size="11.00" fill="gray">Savegame</text>
</g>
<g id="clust4" class="cluster"><title>cluster_\Slothsoft\Savegame\Node</title>
<path fill="none" stroke="gray" d="M274.5,-410C274.5,-410 1338.87,-410 1338.87,-410 1344.87,-410 1350.87,-416 1350.87,-422 1350.87,-422 1350.87,-1362 1350.87,-1362 1350.87,-1368 1344.87,-1374 1338.87,-1374 1338.87,-1374 274.5,-1374 274.5,-1374 268.5,-1374 262.5,-1368 262.5,-1362 262.5,-1362 262.5,-422 262.5,-422 262.5,-416 268.5,-410 274.5,-410"/>
<text text-anchor="middle" x="806.683" y="-1361.2" font-family="Times New Roman,serif" font-size="11.00" fill="gray">Node</text>
</g>
<g id="clust5" class="cluster"><title>cluster_\Slothsoft\Savegame\Node\ArchiveParser</title>
<path fill="none" stroke="gray" d="M792.933,-1220C792.933,-1220 1315.37,-1220 1315.37,-1220 1321.37,-1220 1327.37,-1226 1327.37,-1232 1327.37,-1232 1327.37,-1334 1327.37,-1334 1327.37,-1340 1321.37,-1346 1315.37,-1346 1315.37,-1346 792.933,-1346 792.933,-1346 786.933,-1346 780.933,-1340 780.933,-1334 780.933,-1334 780.933,-1232 780.933,-1232 780.933,-1226 786.933,-1220 792.933,-1220"/>
<text text-anchor="middle" x="1054.15" y="-1333.2" font-family="Times New Roman,serif" font-size="11.00" fill="gray">ArchiveParser</text>
</g>
<g id="clust6" class="cluster"><title>cluster_\Slothsoft\Savegame\Script</title>
<path fill="none" stroke="gray" d="M826.433,-168C826.433,-168 1267.87,-168 1267.87,-168 1273.87,-168 1279.87,-174 1279.87,-180 1279.87,-180 1279.87,-390 1279.87,-390 1279.87,-396 1273.87,-402 1267.87,-402 1267.87,-402 826.433,-402 826.433,-402 820.433,-402 814.433,-396 814.433,-390 814.433,-390 814.433,-180 814.433,-180 814.433,-174 820.433,-168 826.433,-168"/>
<text text-anchor="middle" x="1047.15" y="-389.2" font-family="Times New Roman,serif" font-size="11.00" fill="gray">Script</text>
</g>
<g id="clust7" class="cluster"><title>cluster_\Slothsoft\Savegame\Build</title>
<path fill="none" stroke="gray" d="M44,-1428C44,-1428 384.5,-1428 384.5,-1428 390.5,-1428 396.5,-1434 396.5,-1440 396.5,-1440 396.5,-1542 396.5,-1542 396.5,-1548 390.5,-1554 384.5,-1554 384.5,-1554 44,-1554 44,-1554 38,-1554 32,-1548 32,-1542 32,-1542 32,-1440 32,-1440 32,-1434 38,-1428 44,-1428"/>
<text text-anchor="middle" x="214.25" y="-1541.2" font-family="Times New Roman,serif" font-size="11.00" fill="gray">Build</text>
</g>
<!-- \\Slothsoft\\Savegame\\Node\\ArchiveParser\\CopyArchiveExtractor -->
<g id="node1" class="node"><title>\\Slothsoft\\Savegame\\Node\\ArchiveParser\\CopyArchiveExtractor</title>
<polygon fill="none" stroke="black" points="1319.37,-1318 1167.37,-1318 1167.37,-1282 1319.37,-1282 1319.37,-1318"/>
<text text-anchor="middle" x="1243.37" y="-1297.2" font-family="Courier,monospace" font-size="11.00">CopyArchiveExtractor</text>
</g>
<!-- \\Slothsoft\\Savegame\\Node\\ArchiveParser\\ArchiveExtractorInterface -->
<g id="node3" class="node"><title>\\Slothsoft\\Savegame\\Node\\ArchiveParser\\ArchiveExtractorInterface</title>
<polygon fill="none" stroke="black" points="973.933,-1318 788.933,-1318 788.933,-1282 973.933,-1282 973.933,-1318"/>
<text text-anchor="middle" x="881.433" y="-1297.2" font-family="Courier,monospace" font-size="11.00">ArchiveExtractorInterface</text>
</g>
<!-- \\Slothsoft\\Savegame\\Node\\ArchiveParser\\CopyArchiveExtractor&#45;&gt;\\Slothsoft\\Savegame\\Node\\ArchiveParser\\ArchiveExtractorInterface -->
<g id="edge8" class="edge"><title>\\Slothsoft\\Savegame\\Node\\ArchiveParser\\CopyArchiveExtractor&#45;&gt;\\Slothsoft\\Savegame\\Node\\ArchiveParser\\ArchiveExtractorInterface</title>
<path fill="none" stroke="black" stroke-dasharray="1,5" d="M1167.35,-1300C1114.29,-1300 1042.52,-1300 984.29,-1300"/>
<polygon fill="none" stroke="black" points="983.955,-1296.5 973.955,-1300 983.955,-1303.5 983.955,-1296.5"/>
</g>
<!-- \\Slothsoft\\Savegame\\Node\\ArchiveParser\\CopyArchiveBuilder -->
<g id="node2" class="node"><title>\\Slothsoft\\Savegame\\Node\\ArchiveParser\\CopyArchiveBuilder</title>
<polygon fill="none" stroke="black" points="1312.37,-1264 1174.37,-1264 1174.37,-1228 1312.37,-1228 1312.37,-1264"/>
<text text-anchor="middle" x="1243.37" y="-1243.2" font-family="Courier,monospace" font-size="11.00">CopyArchiveBuilder</text>
</g>
<!-- \\Slothsoft\\Savegame\\Node\\ArchiveParser\\ArchiveBuilderInterface -->
<g id="node4" class="node"><title>\\Slothsoft\\Savegame\\Node\\ArchiveParser\\ArchiveBuilderInterface</title>
<polygon fill="none" stroke="black" points="967.433,-1264 795.433,-1264 795.433,-1228 967.433,-1228 967.433,-1264"/>
<text text-anchor="middle" x="881.433" y="-1243.2" font-family="Courier,monospace" font-size="11.00">ArchiveBuilderInterface</text>
</g>
<!-- \\Slothsoft\\Savegame\\Node\\ArchiveParser\\CopyArchiveBuilder&#45;&gt;\\Slothsoft\\Savegame\\Node\\ArchiveParser\\ArchiveBuilderInterface -->
<g id="edge34" class="edge"><title>\\Slothsoft\\Savegame\\Node\\ArchiveParser\\CopyArchiveBuilder&#45;&gt;\\Slothsoft\\Savegame\\Node\\ArchiveParser\\ArchiveBuilderInterface</title>
<path fill="none" stroke="black" stroke-dasharray="1,5" d="M1174.24,-1246C1118.74,-1246 1039.72,-1246 977.905,-1246"/>
<polygon fill="none" stroke="black" points="977.748,-1242.5 967.748,-1246 977.748,-1249.5 977.748,-1242.5"/>
</g>
<!-- \\Slothsoft\\Savegame\\Node\\AbstractContainerContent -->
<g id="node5" class="node"><title>\\Slothsoft\\Savegame\\Node\\AbstractContainerContent</title>
<polygon fill="none" stroke="black" points="970.933,-1201 791.933,-1201 791.933,-1165 970.933,-1165 970.933,-1201"/>
<text text-anchor="start" x="847.433" y="-1186.2" font-family="Courier,monospace" font-size="11.00">«abstract»</text>
<text text-anchor="start" x="799.933" y="-1174.2" font-family="Courier,monospace" font-size="11.00">AbstractContainerContent</text>
</g>
<!-- \\Slothsoft\\Savegame\\Node\\AbstractContentNode -->
<g id="node15" class="node"><title>\\Slothsoft\\Savegame\\Node\\AbstractContentNode</title>
<polygon fill="none" stroke="black" points="619,-1002 474,-1002 474,-966 619,-966 619,-1002"/>
<text text-anchor="start" x="512.5" y="-987.2" font-family="Courier,monospace" font-size="11.00">«abstract»</text>
<text text-anchor="start" x="482" y="-975.2" font-family="Courier,monospace" font-size="11.00">AbstractContentNode</text>
</g>
<!-- \\Slothsoft\\Savegame\\Node\\AbstractContainerContent&#45;&gt;\\Slothsoft\\Savegame\\Node\\AbstractContentNode -->
<g id="edge2" class="edge"><title>\\Slothsoft\\Savegame\\Node\\AbstractContainerContent&#45;&gt;\\Slothsoft\\Savegame\\Node\\AbstractContentNode</title>
<path fill="none" stroke="black" d="M856.66,-1164.75C811.998,-1131.06 711.69,-1058.26 619,-1011 615.734,-1009.34 612.341,-1007.72 608.885,-1006.15"/>
<polygon fill="none" stroke="black" points="610.205,-1002.91 599.638,-1002.14 607.421,-1009.33 610.205,-1002.91"/>
</g>
<!-- \\Slothsoft\\Savegame\\Build\\BuildableInterface -->
<g id="node37" class="node"><title>\\Slothsoft\\Savegame\\Build\\BuildableInterface</title>
<polygon fill="none" stroke="black" points="388.5,-1472 250.5,-1472 250.5,-1436 388.5,-1436 388.5,-1472"/>
<text text-anchor="middle" x="319.5" y="-1451.2" font-family="Courier,monospace" font-size="11.00">BuildableInterface</text>
</g>
<!-- \\Slothsoft\\Savegame\\Node\\AbstractContainerContent&#45;&gt;\\Slothsoft\\Savegame\\Build\\BuildableInterface -->
<g id="edge3" class="edge"><title>\\Slothsoft\\Savegame\\Node\\AbstractContainerContent&#45;&gt;\\Slothsoft\\Savegame\\Build\\BuildableInterface</title>
<path fill="none" stroke="black" stroke-dasharray="1,5" d="M791.775,-1180.07C696.198,-1177.35 556.421,-1174.82 547.5,-1183"/>
</g>
<!-- \\Slothsoft\\Savegame\\Node\\AbstractValueContent -->
<g id="node6" class="node"><title>\\Slothsoft\\Savegame\\Node\\AbstractValueContent</title>
<polygon fill="none" stroke="black" points="957.433,-697 805.433,-697 805.433,-661 957.433,-661 957.433,-697"/>
<text text-anchor="start" x="847.433" y="-682.2" font-family="Courier,monospace" font-size="11.00">«abstract»</text>
<text text-anchor="start" x="813.433" y="-670.2" font-family="Courier,monospace" font-size="11.00">AbstractValueContent</text>
</g>
<!-- \\Slothsoft\\Savegame\\Node\\AbstractValueContent&#45;&gt;\\Slothsoft\\Savegame\\Node\\AbstractContentNode -->
<g id="edge4" class="edge"><title>\\Slothsoft\\Savegame\\Node\\AbstractValueContent&#45;&gt;\\Slothsoft\\Savegame\\Node\\AbstractContentNode</title>
<path fill="none" stroke="black" d="M867.903,-697.287C833.597,-746.09 733.066,-880.86 619,-957 616.827,-958.45 614.566,-959.837 612.242,-961.162"/>
<polygon fill="none" stroke="black" points="610.277,-958.239 603.028,-965.965 613.513,-964.446 610.277,-958.239"/>
</g>
<!-- \\Slothsoft\\Savegame\\Node\\AbstractValueContent&#45;&gt;\\Slothsoft\\Savegame\\Build\\BuildableInterface -->
<g id="edge5" class="edge"><title>\\Slothsoft\\Savegame\\Node\\AbstractValueContent&#45;&gt;\\Slothsoft\\Savegame\\Build\\BuildableInterface</title>
<path fill="none" stroke="black" stroke-dasharray="1,5" d="M545.5,-1183C451.349,-1269.32 503.232,-1354.11 402,-1432 400.603,-1433.08 399.156,-1434.1 397.669,-1435.07"/>
<polygon fill="none" stroke="black" points="395.736,-1432.14 388.757,-1440.11 399.184,-1438.24 395.736,-1432.14"/>
<path fill="none" stroke="black" stroke-dasharray="1,5" d="M865.435,-697.096C830.604,-739.867 743.24,-851.546 691,-957 646.08,-1047.68 696.786,-1108.28 619,-1173 594.335,-1193.52 571.152,-1161.32 547.5,-1183"/>
</g>
<!-- \\Slothsoft\\Savegame\\Node\\EventScriptValue -->
<g id="node7" class="node"><title>\\Slothsoft\\Savegame\\Node\\EventScriptValue</title>
<polygon fill="none" stroke="black" points="1305.87,-616 1180.87,-616 1180.87,-580 1305.87,-580 1305.87,-616"/>
<text text-anchor="middle" x="1243.37" y="-595.2" font-family="Courier,monospace" font-size="11.00">EventScriptValue</text>
</g>
<!-- \\Slothsoft\\Savegame\\Node\\EventScriptValue&#45;&gt;\\Slothsoft\\Savegame\\Node\\AbstractValueContent -->
<g id="edge6" class="edge"><title>\\Slothsoft\\Savegame\\Node\\EventScriptValue&#45;&gt;\\Slothsoft\\Savegame\\Node\\AbstractValueContent</title>
<path fill="none" stroke="black" d="M1180.63,-613.992C1168.39,-617.425 1155.67,-621.176 1143.87,-625 1111.35,-635.528 1104.98,-643.539 1071.87,-652 1038.32,-660.571 1000.69,-666.639 967.868,-670.82"/>
<polygon fill="none" stroke="black" points="967.34,-667.359 957.844,-672.058 968.198,-674.306 967.34,-667.359"/>
</g>
<!-- \\Slothsoft\\Savegame\\Node\\GroupContainer -->
<g id="node8" class="node"><title>\\Slothsoft\\Savegame\\Node\\GroupContainer</title>
<polygon fill="none" stroke="black" points="1298.87,-1156 1187.87,-1156 1187.87,-1120 1298.87,-1120 1298.87,-1156"/>
<text text-anchor="middle" x="1243.37" y="-1135.2" font-family="Courier,monospace" font-size="11.00">GroupContainer</text>
</g>
<!-- \\Slothsoft\\Savegame\\Node\\GroupContainer&#45;&gt;\\Slothsoft\\Savegame\\Node\\AbstractContainerContent -->
<g id="edge7" class="edge"><title>\\Slothsoft\\Savegame\\Node\\GroupContainer&#45;&gt;\\Slothsoft\\Savegame\\Node\\AbstractContainerContent</title>
<path fill="none" stroke="black" d="M1187.7,-1144.83C1133.08,-1151.66 1047.89,-1162.31 981.366,-1170.63"/>
<polygon fill="none" stroke="black" points="980.764,-1167.18 971.275,-1171.89 981.632,-1174.12 980.764,-1167.18"/>
</g>
<!-- \\Slothsoft\\Savegame\\Node\\SavegameNode -->
<g id="node9" class="node"><title>\\Slothsoft\\Savegame\\Node\\SavegameNode</title>
<polygon fill="none" stroke="black" points="595.5,-1164 497.5,-1164 497.5,-1128 595.5,-1128 595.5,-1164"/>
<text text-anchor="middle" x="546.5" y="-1143.2" font-family="Courier,monospace" font-size="11.00">SavegameNode</text>
</g>
<!-- \\Slothsoft\\Savegame\\Node\\AbstractNode -->
<g id="node19" class="node"><title>\\Slothsoft\\Savegame\\Node\\AbstractNode</title>
<polygon fill="none" stroke="black" points="368.5,-1056 270.5,-1056 270.5,-1020 368.5,-1020 368.5,-1056"/>
<text text-anchor="start" x="285.5" y="-1041.2" font-family="Courier,monospace" font-size="11.00">«abstract»</text>
<text text-anchor="start" x="278.5" y="-1029.2" font-family="Courier,monospace" font-size="11.00">AbstractNode</text>
</g>
<!-- \\Slothsoft\\Savegame\\Node\\SavegameNode&#45;&gt;\\Slothsoft\\Savegame\\Node\\AbstractNode -->
<g id="edge9" class="edge"><title>\\Slothsoft\\Savegame\\Node\\SavegameNode&#45;&gt;\\Slothsoft\\Savegame\\Node\\AbstractNode</title>
<path fill="none" stroke="black" d="M497.202,-1130.23C489.245,-1126.94 481.239,-1123.18 474,-1119 438.175,-1098.31 438.79,-1078.92 402,-1060 394.68,-1056.24 386.65,-1053.06 378.572,-1050.41"/>
<polygon fill="none" stroke="black" points="379.327,-1046.98 368.741,-1047.41 377.288,-1053.67 379.327,-1046.98"/>
</g>
<!-- \\Slothsoft\\Savegame\\Node\\SavegameNode&#45;&gt;\\Slothsoft\\Savegame\\Build\\BuildableInterface -->
<g id="edge10" class="edge"><title>\\Slothsoft\\Savegame\\Node\\SavegameNode&#45;&gt;\\Slothsoft\\Savegame\\Build\\BuildableInterface</title>
<path fill="none" stroke="black" stroke-dasharray="1,5" d="M497.345,-1160.54C488.629,-1164.98 480.317,-1170.7 474,-1178 397.241,-1266.75 485.489,-1349.55 402,-1432 400.514,-1433.47 398.941,-1434.84 397.295,-1436.12"/>
<polygon fill="none" stroke="black" points="395.002,-1433.44 388.525,-1441.82 398.817,-1439.31 395.002,-1433.44"/>
</g>
<!-- \\Slothsoft\\Savegame\\Node\\EventInstruction -->
<g id="node10" class="node"><title>\\Slothsoft\\Savegame\\Node\\EventInstruction</title>
<polygon fill="none" stroke="black" points="1305.87,-1048 1180.87,-1048 1180.87,-1012 1305.87,-1012 1305.87,-1048"/>
<text text-anchor="middle" x="1243.37" y="-1027.2" font-family="Courier,monospace" font-size="11.00">EventInstruction</text>
</g>
<!-- \\Slothsoft\\Savegame\\Node\\AbstractInstructionContent -->
<g id="node14" class="node"><title>\\Slothsoft\\Savegame\\Node\\AbstractInstructionContent</title>
<polygon fill="none" stroke="black" points="977.433,-1002 785.433,-1002 785.433,-966 977.433,-966 977.433,-1002"/>
<text text-anchor="start" x="847.433" y="-987.2" font-family="Courier,monospace" font-size="11.00">«abstract»</text>
<text text-anchor="start" x="793.433" y="-975.2" font-family="Courier,monospace" font-size="11.00">AbstractInstructionContent</text>
</g>
<!-- \\Slothsoft\\Savegame\\Node\\EventInstruction&#45;&gt;\\Slothsoft\\Savegame\\Node\\AbstractInstructionContent -->
<g id="edge11" class="edge"><title>\\Slothsoft\\Savegame\\Node\\EventInstruction&#45;&gt;\\Slothsoft\\Savegame\\Node\\AbstractInstructionContent</title>
<path fill="none" stroke="black" d="M1180.49,-1022.09C1127.55,-1015.33 1050.19,-1005.44 987.552,-997.434"/>
<polygon fill="none" stroke="black" points="987.994,-993.963 977.631,-996.166 987.107,-1000.91 987.994,-993.963"/>
</g>
<!-- \\Slothsoft\\Savegame\\Node\\ForEachFileNode -->
<g id="node11" class="node"><title>\\Slothsoft\\Savegame\\Node\\ForEachFileNode</title>
<polygon fill="none" stroke="black" points="605.5,-948 487.5,-948 487.5,-912 605.5,-912 605.5,-948"/>
<text text-anchor="middle" x="546.5" y="-927.2" font-family="Courier,monospace" font-size="11.00">ForEachFileNode</text>
</g>
<!-- \\Slothsoft\\Savegame\\Node\\ForEachFileNode&#45;&gt;\\Slothsoft\\Savegame\\Node\\AbstractNode -->
<g id="edge12" class="edge"><title>\\Slothsoft\\Savegame\\Node\\ForEachFileNode&#45;&gt;\\Slothsoft\\Savegame\\Node\\AbstractNode</title>
<path fill="none" stroke="black" d="M495.172,-948.1C488.007,-950.939 480.775,-953.948 474,-957 434.787,-974.667 391.583,-997.814 361.028,-1014.84"/>
<polygon fill="none" stroke="black" points="358.984,-1011.97 351.97,-1019.91 362.405,-1018.08 358.984,-1011.97"/>
</g>
<!-- \\Slothsoft\\Savegame\\Node\\UseGlobalInstruction -->
<g id="node12" class="node"><title>\\Slothsoft\\Savegame\\Node\\UseGlobalInstruction</title>
<polygon fill="none" stroke="black" points="957.433,-643 805.433,-643 805.433,-607 957.433,-607 957.433,-643"/>
<text text-anchor="middle" x="881.433" y="-622.2" font-family="Courier,monospace" font-size="11.00">UseGlobalInstruction</text>
</g>
<!-- \\Slothsoft\\Savegame\\Node\\UseGlobalInstruction&#45;&gt;\\Slothsoft\\Savegame\\Node\\AbstractContentNode -->
<g id="edge13" class="edge"><title>\\Slothsoft\\Savegame\\Node\\UseGlobalInstruction&#45;&gt;\\Slothsoft\\Savegame\\Node\\AbstractContentNode</title>
<path fill="none" stroke="black" d="M805.066,-616.973C766.441,-617.071 721.289,-624.328 691,-652 588.171,-745.944 710.921,-852.359 619,-957 618.256,-957.847 617.482,-958.668 616.682,-959.463"/>
<polygon fill="none" stroke="black" points="614.313,-956.88 608.834,-965.949 618.772,-962.276 614.313,-956.88"/>
</g>
<!-- \\Slothsoft\\Savegame\\Node\\SelectValue -->
<g id="node13" class="node"><title>\\Slothsoft\\Savegame\\Node\\SelectValue</title>
<polygon fill="none" stroke="black" points="1288.87,-562 1197.87,-562 1197.87,-526 1288.87,-526 1288.87,-562"/>
<text text-anchor="middle" x="1243.37" y="-541.2" font-family="Courier,monospace" font-size="11.00">SelectValue</text>
</g>
<!-- \\Slothsoft\\Savegame\\Node\\SelectValue&#45;&gt;\\Slothsoft\\Savegame\\Node\\AbstractValueContent -->
<g id="edge14" class="edge"><title>\\Slothsoft\\Savegame\\Node\\SelectValue&#45;&gt;\\Slothsoft\\Savegame\\Node\\AbstractValueContent</title>
<path fill="none" stroke="black" d="M1197.48,-550.618C1179.83,-554.629 1159.98,-560.989 1143.87,-571 1102.95,-596.416 1114.3,-629.21 1071.87,-652 1040.44,-668.88 1002.04,-676.349 968.054,-679.333"/>
<polygon fill="none" stroke="black" points="967.367,-675.874 957.66,-680.12 967.896,-682.854 967.367,-675.874"/>
</g>
<!-- \\Slothsoft\\Savegame\\Node\\AbstractInstructionContent&#45;&gt;\\Slothsoft\\Savegame\\Node\\AbstractContentNode -->
<g id="edge15" class="edge"><title>\\Slothsoft\\Savegame\\Node\\AbstractInstructionContent&#45;&gt;\\Slothsoft\\Savegame\\Node\\AbstractContentNode</title>
<path fill="none" stroke="black" d="M785.028,-984C735.799,-984 676.362,-984 629.26,-984"/>
<polygon fill="none" stroke="black" points="629.1,-980.5 619.1,-984 629.1,-987.5 629.1,-980.5"/>
</g>
<!-- \\Slothsoft\\Savegame\\Node\\AbstractInstructionContent&#45;&gt;\\Slothsoft\\Savegame\\Build\\BuildableInterface -->
<g id="edge16" class="edge"><title>\\Slothsoft\\Savegame\\Node\\AbstractInstructionContent&#45;&gt;\\Slothsoft\\Savegame\\Build\\BuildableInterface</title>
<path fill="none" stroke="black" stroke-dasharray="1,5" d="M862.401,-1002.04C822.514,-1040.73 722.14,-1131.51 619,-1173 589.231,-1184.97 571.152,-1161.32 547.5,-1183"/>
</g>
<!-- \\Slothsoft\\Savegame\\Node\\AbstractContentNode&#45;&gt;\\Slothsoft\\Savegame\\Node\\AbstractNode -->
<g id="edge18" class="edge"><title>\\Slothsoft\\Savegame\\Node\\AbstractContentNode&#45;&gt;\\Slothsoft\\Savegame\\Node\\AbstractNode</title>
<path fill="none" stroke="black" d="M473.999,-1001.16C443.266,-1008.54 407.803,-1017.05 378.711,-1024.03"/>
<polygon fill="none" stroke="black" points="377.612,-1020.69 368.705,-1026.43 379.246,-1027.5 377.612,-1020.69"/>
</g>
<!-- \\Slothsoft\\Savegame\\Node\\RepeatGroupInstruction -->
<g id="node16" class="node"><title>\\Slothsoft\\Savegame\\Node\\RepeatGroupInstruction</title>
<polygon fill="none" stroke="black" points="1325.87,-994 1160.87,-994 1160.87,-958 1325.87,-958 1325.87,-994"/>
<text text-anchor="middle" x="1243.37" y="-973.2" font-family="Courier,monospace" font-size="11.00">RepeatGroupInstruction</text>
</g>
<!-- \\Slothsoft\\Savegame\\Node\\RepeatGroupInstruction&#45;&gt;\\Slothsoft\\Savegame\\Node\\AbstractInstructionContent -->
<g id="edge19" class="edge"><title>\\Slothsoft\\Savegame\\Node\\RepeatGroupInstruction&#45;&gt;\\Slothsoft\\Savegame\\Node\\AbstractInstructionContent</title>
<path fill="none" stroke="black" d="M1160.69,-977.815C1109.44,-978.955 1042.84,-980.435 987.644,-981.662"/>
<polygon fill="none" stroke="black" points="987.397,-978.166 977.478,-981.888 987.553,-985.164 987.397,-978.166"/>
</g>
<!-- \\Slothsoft\\Savegame\\Node\\InstructionContainer -->
<g id="node17" class="node"><title>\\Slothsoft\\Savegame\\Node\\InstructionContainer</title>
<polygon fill="none" stroke="black" points="1319.37,-1210 1167.37,-1210 1167.37,-1174 1319.37,-1174 1319.37,-1210"/>
<text text-anchor="middle" x="1243.37" y="-1189.2" font-family="Courier,monospace" font-size="11.00">InstructionContainer</text>
</g>
<!-- \\Slothsoft\\Savegame\\Node\\InstructionContainer&#45;&gt;\\Slothsoft\\Savegame\\Node\\AbstractContainerContent -->
<g id="edge20" class="edge"><title>\\Slothsoft\\Savegame\\Node\\InstructionContainer&#45;&gt;\\Slothsoft\\Savegame\\Node\\AbstractContainerContent</title>
<path fill="none" stroke="black" d="M1167.35,-1190.12C1113.3,-1188.77 1039.85,-1186.94 981.057,-1185.47"/>
<polygon fill="none" stroke="black" points="981.092,-1181.97 971.008,-1185.21 980.917,-1188.96 981.092,-1181.97"/>
</g>
<!-- \\Slothsoft\\Savegame\\Node\\BitValue -->
<g id="node18" class="node"><title>\\Slothsoft\\Savegame\\Node\\BitValue</title>
<polygon fill="none" stroke="black" points="1278.87,-508 1207.87,-508 1207.87,-472 1278.87,-472 1278.87,-508"/>
<text text-anchor="middle" x="1243.37" y="-487.2" font-family="Courier,monospace" font-size="11.00">BitValue</text>
</g>
<!-- \\Slothsoft\\Savegame\\Node\\BitValue&#45;&gt;\\Slothsoft\\Savegame\\Node\\AbstractValueContent -->
<g id="edge22" class="edge"><title>\\Slothsoft\\Savegame\\Node\\BitValue&#45;&gt;\\Slothsoft\\Savegame\\Node\\AbstractValueContent</title>
<path fill="none" stroke="black" d="M1207.83,-492.654C1187.38,-495.769 1162.01,-502.499 1143.87,-517 1090.74,-559.45 1127.56,-612.978 1071.87,-652 1041.9,-672.995 1002.66,-680.922 967.673,-683.141"/>
<polygon fill="none" stroke="black" points="967.266,-679.656 957.448,-683.638 967.606,-686.648 967.266,-679.656"/>
</g>
<!-- \\Slothsoft\\Savegame\\Node\\IntegerValue -->
<g id="node20" class="node"><title>\\Slothsoft\\Savegame\\Node\\IntegerValue</title>
<polygon fill="none" stroke="black" points="1292.37,-454 1194.37,-454 1194.37,-418 1292.37,-418 1292.37,-454"/>
<text text-anchor="middle" x="1243.37" y="-433.2" font-family="Courier,monospace" font-size="11.00">IntegerValue</text>
</g>
<!-- \\Slothsoft\\Savegame\\Node\\IntegerValue&#45;&gt;\\Slothsoft\\Savegame\\Node\\AbstractValueContent -->
<g id="edge23" class="edge"><title>\\Slothsoft\\Savegame\\Node\\IntegerValue&#45;&gt;\\Slothsoft\\Savegame\\Node\\AbstractValueContent</title>
<path fill="none" stroke="black" d="M1194.12,-440.089C1176.52,-443.759 1157.58,-450.544 1143.87,-463 1077.32,-523.423 1142.09,-595.885 1071.87,-652 1043.05,-675.028 1003.59,-683.159 968.146,-684.983"/>
<polygon fill="none" stroke="black" points="967.651,-681.499 957.78,-685.348 967.897,-688.494 967.651,-681.499"/>
</g>
<!-- \\Slothsoft\\Savegame\\Node\\StringDictionaryInstruction -->
<g id="node21" class="node"><title>\\Slothsoft\\Savegame\\Node\\StringDictionaryInstruction</title>
<polygon fill="none" stroke="black" points="1342.87,-940 1143.87,-940 1143.87,-904 1342.87,-904 1342.87,-940"/>
<text text-anchor="middle" x="1243.37" y="-919.2" font-family="Courier,monospace" font-size="11.00">StringDictionaryInstruction</text>
</g>
<!-- \\Slothsoft\\Savegame\\Node\\StringDictionaryInstruction&#45;&gt;\\Slothsoft\\Savegame\\Node\\AbstractInstructionContent -->
<g id="edge25" class="edge"><title>\\Slothsoft\\Savegame\\Node\\StringDictionaryInstruction&#45;&gt;\\Slothsoft\\Savegame\\Node\\AbstractInstructionContent</title>
<path fill="none" stroke="black" d="M1143.54,-939.024C1095.15,-947.358 1036.88,-957.397 987.663,-965.874"/>
<polygon fill="none" stroke="black" points="986.888,-962.456 977.627,-967.602 988.076,-969.354 986.888,-962.456"/>
</g>
<!-- \\Slothsoft\\Savegame\\Node\\BinaryValue -->
<g id="node22" class="node"><title>\\Slothsoft\\Savegame\\Node\\BinaryValue</title>
<polygon fill="none" stroke="black" points="1288.87,-778 1197.87,-778 1197.87,-742 1288.87,-742 1288.87,-778"/>
<text text-anchor="middle" x="1243.37" y="-757.2" font-family="Courier,monospace" font-size="11.00">BinaryValue</text>
</g>
<!-- \\Slothsoft\\Savegame\\Node\\BinaryValue&#45;&gt;\\Slothsoft\\Savegame\\Node\\AbstractValueContent -->
<g id="edge27" class="edge"><title>\\Slothsoft\\Savegame\\Node\\BinaryValue&#45;&gt;\\Slothsoft\\Savegame\\Node\\AbstractValueContent</title>
<path fill="none" stroke="black" d="M1197.51,-749.905C1140.18,-737.005 1039.76,-714.405 967.681,-698.184"/>
<polygon fill="none" stroke="black" points="968.231,-694.721 957.706,-695.94 966.694,-701.55 968.231,-694.721"/>
</g>
<!-- \\Slothsoft\\Savegame\\Node\\FileContainer -->
<g id="node23" class="node"><title>\\Slothsoft\\Savegame\\Node\\FileContainer</title>
<polygon fill="none" stroke="black" points="598.5,-1110 494.5,-1110 494.5,-1074 598.5,-1074 598.5,-1110"/>
<text text-anchor="middle" x="546.5" y="-1089.2" font-family="Courier,monospace" font-size="11.00">FileContainer</text>
</g>
<!-- \\Slothsoft\\Savegame\\Node\\FileContainer&#45;&gt;\\Slothsoft\\Savegame\\Node\\AbstractNode -->
<g id="edge28" class="edge"><title>\\Slothsoft\\Savegame\\Node\\FileContainer&#45;&gt;\\Slothsoft\\Savegame\\Node\\AbstractNode</title>
<path fill="none" stroke="black" d="M494.444,-1079.75C459.956,-1071.47 414.355,-1060.53 378.497,-1051.92"/>
<polygon fill="none" stroke="black" points="379.199,-1048.49 368.658,-1049.56 377.565,-1055.3 379.199,-1048.49"/>
</g>
<!-- \\Slothsoft\\Savegame\\Node\\FileContainer&#45;&gt;\\Slothsoft\\Savegame\\Build\\BuildableInterface -->
<g id="edge30" class="edge"><title>\\Slothsoft\\Savegame\\Node\\FileContainer&#45;&gt;\\Slothsoft\\Savegame\\Build\\BuildableInterface</title>
<path fill="none" stroke="black" stroke-dasharray="1,5" d="M494.236,-1104.16C486.621,-1107.87 479.499,-1112.7 474,-1119 380.101,-1226.51 501.022,-1329.19 402,-1432 400.551,-1433.5 399.011,-1434.91 397.395,-1436.22"/>
<polygon fill="none" stroke="black" points="395.089,-1433.55 388.741,-1442.04 398.993,-1439.36 395.089,-1433.55"/>
</g>
<!-- \\Slothsoft\\Savegame\\NodeEvaluatorInterface -->
<g id="node40" class="node"><title>\\Slothsoft\\Savegame\\NodeEvaluatorInterface</title>
<polygon fill="none" stroke="black" points="402,-1418 237,-1418 237,-1382 402,-1382 402,-1418"/>
<text text-anchor="middle" x="319.5" y="-1397.2" font-family="Courier,monospace" font-size="11.00">NodeEvaluatorInterface</text>
</g>
<!-- \\Slothsoft\\Savegame\\Node\\FileContainer&#45;&gt;\\Slothsoft\\Savegame\\NodeEvaluatorInterface -->
<g id="edge29" class="edge"><title>\\Slothsoft\\Savegame\\Node\\FileContainer&#45;&gt;\\Slothsoft\\Savegame\\NodeEvaluatorInterface</title>
<path fill="none" stroke="black" stroke-dasharray="1,5" d="M494.475,-1104.38C486.833,-1108.06 479.639,-1112.83 474,-1119 395.683,-1204.7 481.648,-1288.93 404.872,-1374.32"/>
<polygon fill="none" stroke="black" points="402.112,-1372.14 397.736,-1381.79 407.174,-1376.98 402.112,-1372.14"/>
</g>
<!-- \\Slothsoft\\Savegame\\Node\\EventDictionaryInstruction -->
<g id="node24" class="node"><title>\\Slothsoft\\Savegame\\Node\\EventDictionaryInstruction</title>
<polygon fill="none" stroke="black" points="1339.37,-886 1147.37,-886 1147.37,-850 1339.37,-850 1339.37,-886"/>
<text text-anchor="middle" x="1243.37" y="-865.2" font-family="Courier,monospace" font-size="11.00">EventDictionaryInstruction</text>
</g>
<!-- \\Slothsoft\\Savegame\\Node\\EventDictionaryInstruction&#45;&gt;\\Slothsoft\\Savegame\\Node\\AbstractInstructionContent -->
<g id="edge31" class="edge"><title>\\Slothsoft\\Savegame\\Node\\EventDictionaryInstruction&#45;&gt;\\Slothsoft\\Savegame\\Node\\AbstractInstructionContent</title>
<path fill="none" stroke="black" d="M1174.39,-886.054C1164.13,-888.946 1153.7,-891.982 1143.87,-895 1074.18,-916.391 995.056,-943.765 942.283,-962.471"/>
<polygon fill="none" stroke="black" points="940.996,-959.214 932.745,-965.86 943.339,-965.81 940.996,-959.214"/>
</g>
<!-- \\Slothsoft\\Savegame\\Node\\StringValue -->
<g id="node25" class="node"><title>\\Slothsoft\\Savegame\\Node\\StringValue</title>
<polygon fill="none" stroke="black" points="1288.87,-724 1197.87,-724 1197.87,-688 1288.87,-688 1288.87,-724"/>
<text text-anchor="middle" x="1243.37" y="-703.2" font-family="Courier,monospace" font-size="11.00">StringValue</text>
</g>
<!-- \\Slothsoft\\Savegame\\Node\\StringValue&#45;&gt;\\Slothsoft\\Savegame\\Node\\AbstractValueContent -->
<g id="edge32" class="edge"><title>\\Slothsoft\\Savegame\\Node\\StringValue&#45;&gt;\\Slothsoft\\Savegame\\Node\\AbstractValueContent</title>
<path fill="none" stroke="black" d="M1197.51,-702.635C1140.18,-698.335 1039.76,-690.802 967.681,-685.395"/>
<polygon fill="none" stroke="black" points="967.94,-681.904 957.706,-684.647 967.416,-688.885 967.94,-681.904"/>
</g>
<!-- \\Slothsoft\\Savegame\\Node\\BitFieldInstruction -->
<g id="node26" class="node"><title>\\Slothsoft\\Savegame\\Node\\BitFieldInstruction</title>
<polygon fill="none" stroke="black" points="1315.87,-832 1170.87,-832 1170.87,-796 1315.87,-796 1315.87,-832"/>
<text text-anchor="middle" x="1243.37" y="-811.2" font-family="Courier,monospace" font-size="11.00">BitFieldInstruction</text>
</g>
<!-- \\Slothsoft\\Savegame\\Node\\BitFieldInstruction&#45;&gt;\\Slothsoft\\Savegame\\Node\\AbstractInstructionContent -->
<g id="edge33" class="edge"><title>\\Slothsoft\\Savegame\\Node\\BitFieldInstruction&#45;&gt;\\Slothsoft\\Savegame\\Node\\AbstractInstructionContent</title>
<path fill="none" stroke="black" d="M1170.69,-831.53C1161.55,-834.38 1152.41,-837.545 1143.87,-841 1059.88,-874.939 968.474,-929.352 919.093,-960.352"/>
<polygon fill="none" stroke="black" points="916.96,-957.56 910.372,-965.858 920.697,-963.479 916.96,-957.56"/>
</g>
<!-- \\Slothsoft\\Savegame\\Node\\ArchiveNode -->
<g id="node27" class="node"><title>\\Slothsoft\\Savegame\\Node\\ArchiveNode</title>
<polygon fill="none" stroke="black" points="592,-1056 501,-1056 501,-1020 592,-1020 592,-1056"/>
<text text-anchor="middle" x="546.5" y="-1035.2" font-family="Courier,monospace" font-size="11.00">ArchiveNode</text>
</g>
<!-- \\Slothsoft\\Savegame\\Node\\ArchiveNode&#45;&gt;\\Slothsoft\\Savegame\\Node\\AbstractNode -->
<g id="edge35" class="edge"><title>\\Slothsoft\\Savegame\\Node\\ArchiveNode&#45;&gt;\\Slothsoft\\Savegame\\Node\\AbstractNode</title>
<path fill="none" stroke="black" d="M500.778,-1038C465.869,-1038 417.079,-1038 379.058,-1038"/>
<polygon fill="none" stroke="black" points="378.64,-1034.5 368.64,-1038 378.64,-1041.5 378.64,-1034.5"/>
</g>
<!-- \\Slothsoft\\Savegame\\Node\\ArchiveNode&#45;&gt;\\Slothsoft\\Savegame\\Build\\BuildableInterface -->
<g id="edge36" class="edge"><title>\\Slothsoft\\Savegame\\Node\\ArchiveNode&#45;&gt;\\Slothsoft\\Savegame\\Build\\BuildableInterface</title>
<path fill="none" stroke="black" stroke-dasharray="1,5" d="M500.671,-1047.09C490.644,-1051.07 480.938,-1056.79 474,-1065 366.698,-1191.95 515.355,-1310.43 402,-1432 400.576,-1433.53 399.058,-1434.95 397.46,-1436.28"/>
<polygon fill="none" stroke="black" points="395.147,-1433.63 388.884,-1442.17 399.109,-1439.4 395.147,-1433.63"/>
</g>
<!-- \\Slothsoft\\Savegame\\Node\\SignedIntegerValue -->
<g id="node28" class="node"><title>\\Slothsoft\\Savegame\\Node\\SignedIntegerValue</title>
<polygon fill="none" stroke="black" points="1312.37,-670 1174.37,-670 1174.37,-634 1312.37,-634 1312.37,-670"/>
<text text-anchor="middle" x="1243.37" y="-649.2" font-family="Courier,monospace" font-size="11.00">SignedIntegerValue</text>
</g>
<!-- \\Slothsoft\\Savegame\\Node\\SignedIntegerValue&#45;&gt;\\Slothsoft\\Savegame\\Node\\AbstractValueContent -->
<g id="edge37" class="edge"><title>\\Slothsoft\\Savegame\\Node\\SignedIntegerValue&#45;&gt;\\Slothsoft\\Savegame\\Node\\AbstractValueContent</title>
<path fill="none" stroke="black" d="M1174.24,-657.11C1115.75,-661.498 1031.13,-667.846 968.063,-672.577"/>
<polygon fill="none" stroke="black" points="967.449,-669.113 957.739,-673.351 967.973,-676.093 967.449,-669.113"/>
</g>
<!-- \\Slothsoft\\Savegame\\Node\\EventStepInstruction -->
<g id="node29" class="node"><title>\\Slothsoft\\Savegame\\Node\\EventStepInstruction</title>
<polygon fill="none" stroke="black" points="1319.37,-1102 1167.37,-1102 1167.37,-1066 1319.37,-1066 1319.37,-1102"/>
<text text-anchor="middle" x="1243.37" y="-1081.2" font-family="Courier,monospace" font-size="11.00">EventStepInstruction</text>
</g>
<!-- \\Slothsoft\\Savegame\\Node\\EventStepInstruction&#45;&gt;\\Slothsoft\\Savegame\\Node\\AbstractInstructionContent -->
<g id="edge38" class="edge"><title>\\Slothsoft\\Savegame\\Node\\EventStepInstruction&#45;&gt;\\Slothsoft\\Savegame\\Node\\AbstractInstructionContent</title>
<path fill="none" stroke="black" d="M1176.39,-1065.96C1165.52,-1062.98 1154.38,-1059.91 1143.87,-1057 1080.61,-1039.5 1008.8,-1019.43 956.472,-1004.77"/>
<polygon fill="none" stroke="black" points="957.178,-1001.34 946.604,-1002.01 955.289,-1008.08 957.178,-1001.34"/>
</g>
<!-- \\Slothsoft\\Savegame\\Script\\Event -->
<g id="node30" class="node"><title>\\Slothsoft\\Savegame\\Script\\Event</title>
<polygon fill="none" stroke="black" points="1270.37,-374 1216.37,-374 1216.37,-338 1270.37,-338 1270.37,-374"/>
<text text-anchor="middle" x="1243.37" y="-353.2" font-family="Courier,monospace" font-size="11.00">Event</text>
</g>
<!-- \\Slothsoft\\Savegame\\Script\\AbstractElement -->
<g id="node33" class="node"><title>\\Slothsoft\\Savegame\\Script\\AbstractElement</title>
<polygon fill="none" stroke="black" points="940.433,-320 822.433,-320 822.433,-284 940.433,-284 940.433,-320"/>
<text text-anchor="start" x="847.433" y="-305.2" font-family="Courier,monospace" font-size="11.00">«abstract»</text>
<text text-anchor="start" x="830.433" y="-293.2" font-family="Courier,monospace" font-size="11.00">AbstractElement</text>
</g>
<!-- \\Slothsoft\\Savegame\\Script\\Event&#45;&gt;\\Slothsoft\\Savegame\\Script\\AbstractElement -->
<g id="edge17" class="edge"><title>\\Slothsoft\\Savegame\\Script\\Event&#45;&gt;\\Slothsoft\\Savegame\\Script\\AbstractElement</title>
<path fill="none" stroke="black" d="M1216.19,-352.073C1160.96,-343.787 1030.99,-324.288 950.511,-312.214"/>
<polygon fill="none" stroke="black" points="950.874,-308.729 940.466,-310.706 949.836,-315.652 950.874,-308.729"/>
</g>
<!-- \\Slothsoft\\Savegame\\Script\\Script -->
<g id="node31" class="node"><title>\\Slothsoft\\Savegame\\Script\\Script</title>
<polygon fill="none" stroke="black" points="1271.87,-320 1214.87,-320 1214.87,-284 1271.87,-284 1271.87,-320"/>
<text text-anchor="middle" x="1243.37" y="-299.2" font-family="Courier,monospace" font-size="11.00">Script</text>
</g>
<!-- \\Slothsoft\\Savegame\\Script\\Script&#45;&gt;\\Slothsoft\\Savegame\\Script\\AbstractElement -->
<g id="edge21" class="edge"><title>\\Slothsoft\\Savegame\\Script\\Script&#45;&gt;\\Slothsoft\\Savegame\\Script\\AbstractElement</title>
<path fill="none" stroke="black" d="M1214.72,-302C1158.79,-302 1030.78,-302 950.968,-302"/>
<polygon fill="none" stroke="black" points="950.52,-298.5 940.52,-302 950.52,-305.5 950.52,-298.5"/>
</g>
<!-- \\Slothsoft\\Savegame\\Script\\Line -->
<g id="node32" class="node"><title>\\Slothsoft\\Savegame\\Script\\Line</title>
<polygon fill="none" stroke="black" points="1270.37,-266 1216.37,-266 1216.37,-230 1270.37,-230 1270.37,-266"/>
<text text-anchor="middle" x="1243.37" y="-245.2" font-family="Courier,monospace" font-size="11.00">Line</text>
</g>
<!-- \\Slothsoft\\Savegame\\Script\\Line&#45;&gt;\\Slothsoft\\Savegame\\Script\\AbstractElement -->
<g id="edge26" class="edge"><title>\\Slothsoft\\Savegame\\Script\\Line&#45;&gt;\\Slothsoft\\Savegame\\Script\\AbstractElement</title>
<path fill="none" stroke="black" d="M1216.19,-251.927C1160.96,-260.213 1030.99,-279.712 950.511,-291.786"/>
<polygon fill="none" stroke="black" points="949.836,-288.348 940.466,-293.294 950.874,-295.271 949.836,-288.348"/>
</g>
<!-- \\Slothsoft\\Savegame\\Script\\Parser -->
<g id="node34" class="node"><title>\\Slothsoft\\Savegame\\Script\\Parser</title>
<polygon fill="none" stroke="black" points="1271.87,-212 1214.87,-212 1214.87,-176 1271.87,-176 1271.87,-212"/>
<text text-anchor="middle" x="1243.37" y="-191.2" font-family="Courier,monospace" font-size="11.00">Parser</text>
</g>
<!-- \\Slothsoft\\Savegame\\Build\\XmlBuilder -->
<g id="node35" class="node"><title>\\Slothsoft\\Savegame\\Build\\XmlBuilder</title>
<polygon fill="none" stroke="black" points="361.5,-1526 277.5,-1526 277.5,-1490 361.5,-1490 361.5,-1526"/>
<text text-anchor="middle" x="319.5" y="-1505.2" font-family="Courier,monospace" font-size="11.00">XmlBuilder</text>
</g>
<!-- \\Slothsoft\\Savegame\\Build\\BuilderInterface -->
<g id="node36" class="node"><title>\\Slothsoft\\Savegame\\Build\\BuilderInterface</title>
<polygon fill="none" stroke="black" points="165,-1526 40,-1526 40,-1490 165,-1490 165,-1526"/>
<text text-anchor="middle" x="102.5" y="-1505.2" font-family="Courier,monospace" font-size="11.00">BuilderInterface</text>
</g>
<!-- \\Slothsoft\\Savegame\\Build\\XmlBuilder&#45;&gt;\\Slothsoft\\Savegame\\Build\\BuilderInterface -->
<g id="edge24" class="edge"><title>\\Slothsoft\\Savegame\\Build\\XmlBuilder&#45;&gt;\\Slothsoft\\Savegame\\Build\\BuilderInterface</title>
<path fill="none" stroke="black" stroke-dasharray="1,5" d="M277.3,-1508C248.57,-1508 209.475,-1508 175.639,-1508"/>
<polygon fill="none" stroke="black" points="175.324,-1504.5 165.324,-1508 175.324,-1511.5 175.324,-1504.5"/>
</g>
<!-- \\Slothsoft\\Savegame\\Editor -->
<g id="node38" class="node"><title>\\Slothsoft\\Savegame\\Editor</title>
<polygon fill="none" stroke="black" points="1271.87,-158 1214.87,-158 1214.87,-122 1271.87,-122 1271.87,-158"/>
<text text-anchor="middle" x="1243.37" y="-137.2" font-family="Courier,monospace" font-size="11.00">Editor</text>
</g>
<!-- \\Slothsoft\\Core\\IO\\Writable\\DOMWriterInterface -->
<g id="node41" class="node"><title>\\Slothsoft\\Core\\IO\\Writable\\DOMWriterInterface</title>
<ellipse fill="none" stroke="black" cx="881.433" cy="-18" rx="190.366" ry="18"/>
<text text-anchor="middle" x="881.433" y="-14.3" font-family="Times New Roman,serif" font-size="14.00" fill="gray">\Slothsoft\Core\IO\Writable\DOMWriterInterface</text>
</g>
<!-- \\Slothsoft\\Savegame\\Editor&#45;&gt;\\Slothsoft\\Core\\IO\\Writable\\DOMWriterInterface -->
<g id="edge1" class="edge"><title>\\Slothsoft\\Savegame\\Editor&#45;&gt;\\Slothsoft\\Core\\IO\\Writable\\DOMWriterInterface</title>
<path fill="none" stroke="black" stroke-dasharray="1,5" d="M1214.59,-133.029C1194.76,-127.896 1167.52,-120.527 1143.87,-113 1071.52,-89.9811 989.433,-59.4063 936.856,-39.2375"/>
<polygon fill="none" stroke="black" points="937.981,-35.9202 927.391,-35.5968 935.468,-42.4536 937.981,-35.9202"/>
</g>
<!-- \\Slothsoft\\Savegame\\Converter -->
<g id="node39" class="node"><title>\\Slothsoft\\Savegame\\Converter</title>
<polygon fill="none" stroke="black" points="1281.87,-104 1204.87,-104 1204.87,-68 1281.87,-68 1281.87,-104"/>
<text text-anchor="middle" x="1243.37" y="-83.2" font-family="Courier,monospace" font-size="11.00">Converter</text>
</g>
</g>
</svg>
